<?xml version="1.0" encoding="UTF-8" standalone="no"?>
<!DOCTYPE svg PUBLIC "-//W3C//DTD SVG 1.1//EN" "http://www.w3.org/Graphics/SVG/1.1/DTD/svg11.dtd">
<svg width="100%" height="100%" viewBox="0 0 22 28" version="1.1" xmlns="http://www.w3.org/2000/svg" xmlns:xlink="http://www.w3.org/1999/xlink" xml:space="preserve" style="fill-rule:evenodd;clip-rule:evenodd;stroke-linejoin:round;stroke-miterlimit:1.41421;">
    <g id="ion.-android.-hangout.-.-.-Ionicons" transform="matrix(1,0,0,1,-4,0)">
        <path d="M15,0C18.042,0 20.635,1.133 22.781,3.399C24.927,5.665 26,8.391 26,11.577C26,14.628 24.948,17.724 22.844,20.865C20.74,24.006 18.125,26.385 15,28L15,23.221C11.958,23.221 9.365,22.077 7.219,19.788C5.073,17.5 4,14.763 4,11.577C4,8.391 5.073,5.665 7.219,3.399C9.365,1.133 11.958,0 15,0ZM14.375,12.317L14.375,8.212L10.5,8.212L10.5,12.317L12.438,12.317L11.125,15.01L13.063,15.01L14.375,12.317ZM19.5,12.317L19.5,8.212L15.625,8.212L15.625,12.317L17.563,12.317L16.313,15.01L18.25,15.01L19.5,12.317Z"/>
    </g>
</svg>
