<?xml version="1.0" encoding="UTF-8" standalone="no"?>
<!DOCTYPE svg PUBLIC "-//W3C//DTD SVG 1.1//EN" "http://www.w3.org/Graphics/SVG/1.1/DTD/svg11.dtd">
<svg width="100%" height="100%" viewBox="0 0 30 28" version="1.1" xmlns="http://www.w3.org/2000/svg" xmlns:xlink="http://www.w3.org/1999/xlink" xml:space="preserve" style="fill-rule:evenodd;clip-rule:evenodd;stroke-linejoin:round;stroke-miterlimit:1.41421;">
    <g id="ion.-android.-restaurant.-.-.-Ionicons" transform="matrix(1,0,0,1,0,-2)">
        <path d="M8.388,17.767L1.808,11.286C0.603,10.072 0,8.628 0,6.953C0,5.279 0.603,3.834 1.808,2.621L12.872,13.398L8.388,17.767ZM19.091,15L16.704,17.257L27.551,27.815L25.382,30L14.535,19.369L3.688,30L1.519,27.815C9.377,20.097 14.463,15.073 16.777,12.742C16.198,11.577 16.114,10.242 16.524,8.737C16.933,7.233 17.765,5.873 19.018,4.66C20.513,3.203 22.188,2.342 24.044,2.075C25.9,1.808 27.407,2.257 28.564,3.422C29.721,4.587 30.179,6.08 29.938,7.9C29.697,9.72 28.829,11.359 27.334,12.815C26.129,14.029 24.755,14.842 23.213,15.255C21.67,15.667 20.296,15.582 19.091,15Z"/>
    </g>
</svg>
