<?xml version="1.0" encoding="UTF-8" standalone="no"?>
<!DOCTYPE svg PUBLIC "-//W3C//DTD SVG 1.1//EN" "http://www.w3.org/Graphics/SVG/1.1/DTD/svg11.dtd">
<svg width="100%" height="100%" viewBox="0 0 31 29" version="1.1" xmlns="http://www.w3.org/2000/svg" xmlns:xlink="http://www.w3.org/1999/xlink" xml:space="preserve" style="fill-rule:evenodd;clip-rule:evenodd;stroke-linejoin:round;stroke-miterlimit:1.41421;">
    <g transform="matrix(1,0,0,1,0,-1)">
        <path d="M19.068,11.941L30.717,11.941L21.2,18.541L24.862,29.223L15.5,22.569L6.138,29.223L9.8,18.541L0.283,11.941L11.932,11.941L15.5,1.334C16.689,4.87 17.879,8.405 19.068,11.941ZM13.153,13.641L5.717,13.641L11.825,17.877L9.46,24.777L15.5,20.484L21.54,24.777L19.175,17.877L25.283,13.641L17.847,13.641L15.5,6.666C14.718,8.991 13.936,11.316 13.153,13.641Z" style="fill-rule:nonzero;"/>
    </g>
</svg>
