<?xml version="1.0" encoding="UTF-8" standalone="no"?>
<svg
   xmlns:dc="http://purl.org/dc/elements/1.1/"
   xmlns:cc="http://creativecommons.org/ns#"
   xmlns:rdf="http://www.w3.org/1999/02/22-rdf-syntax-ns#"
   xmlns:svg="http://www.w3.org/2000/svg"
   xmlns="http://www.w3.org/2000/svg"
   xmlns:sodipodi="http://sodipodi.sourceforge.net/DTD/sodipodi-0.dtd"
   xmlns:inkscape="http://www.inkscape.org/namespaces/inkscape"
   width="100%"
   height="100%"
   viewBox="0 0 31 26"
   version="1.1"
   xml:space="preserve"
   style="fill-rule:evenodd;clip-rule:evenodd;stroke-linejoin:round;stroke-miterlimit:1.41421;"
   id="svg102"
   sodipodi:docname="kelplat-menu.svg"
   inkscape:version="0.92.2 5c3e80d, 2017-08-06"><metadata
     id="metadata108"><rdf:RDF><cc:Work
         rdf:about=""><dc:format>image/svg+xml</dc:format><dc:type
           rdf:resource="http://purl.org/dc/dcmitype/StillImage" /><dc:title></dc:title></cc:Work></rdf:RDF></metadata><defs
     id="defs106" /><sodipodi:namedview
     pagecolor="#ffffff"
     bordercolor="#666666"
     borderopacity="1"
     objecttolerance="10"
     gridtolerance="10"
     guidetolerance="10"
     inkscape:pageopacity="0"
     inkscape:pageshadow="2"
     inkscape:window-width="1440"
     inkscape:window-height="851"
     id="namedview104"
     showgrid="false"
     inkscape:zoom="25.923077"
     inkscape:cx="15.5"
     inkscape:cy="13"
     inkscape:window-x="0"
     inkscape:window-y="1"
     inkscape:window-maximized="1"
     inkscape:current-layer="Plan-de-travail1" /><g
     id="Plan-de-travail1"
     transform="matrix(0.740145,0,0,0.982544,25.9288,-22.9464)"><rect
       x="-35.032"
       y="23.354"
       width="41.805"
       height="25.947"
       style="fill:none;"
       id="rect87" /><g
       transform="matrix(1.35109,0,0,1.01777,12.247181,0.91996727)"
       id="g91"><path
         d="m -9,26.4 h -14.6 c -0.3,-1.7 -1.7,-2.9 -3.5,-2.9 -1.9,0 -3.5,1.6 -3.5,3.5 0,1.9 1.6,3.5 3.5,3.5 1.7,0 3.2,-1.3 3.5,-2.9 H -9 Z m -18.1,2.9 c -1.3,0 -2.3,-1 -2.3,-2.3 0,-1.3 1,-2.3 2.3,-2.3 1.3,0 2.3,1 2.3,2.3 0,1.3 -1,2.3 -2.3,2.3 z"
         style="fill-rule:nonzero"
         id="path89"
         inkscape:connector-curvature="0" /></g><g
       transform="matrix(1.35109,0,0,1.01777,12.403538,0.91996727)"
       id="g95"><path
         d="m -9,42.8 h -14.6 c -0.3,-1.7 -1.7,-2.9 -3.5,-2.9 -1.9,0 -3.5,1.6 -3.5,3.5 0,1.9 1.6,3.5 3.5,3.5 1.7,0 3.2,-1.3 3.5,-2.9 H -9 Z m -18.1,2.9 c -1.3,0 -2.3,-1 -2.3,-2.3 0,-1.3 1,-2.3 2.3,-2.3 1.3,0 2.3,1 2.3,2.3 0,1.2 -1,2.3 -2.3,2.3 z"
         style="fill-rule:nonzero"
         id="path93"
         inkscape:connector-curvature="0" /></g><g
       transform="matrix(1.35109,0,0,1.01777,11.673871,0.91996726)"
       id="g99"><path
         d="m -11.9,31.6 c -1.7,0 -3.2,1.3 -3.5,2.9 H -30 v 1.2 h 14.6 c 0.3,1.7 1.7,2.9 3.5,2.9 1.9,0 3.5,-1.6 3.5,-3.5 0,-1.9 -1.6,-3.5 -3.5,-3.5 z m 0,5.9 c -1.3,0 -2.3,-1 -2.3,-2.3 0,-1.3 1,-2.3 2.3,-2.3 1.3,0 2.3,1 2.3,2.3 0,1.3 -1,2.3 -2.3,2.3 z"
         style="fill-rule:nonzero"
         id="path97"
         inkscape:connector-curvature="0" /></g></g></svg>